<svg xmlns="http://www.w3.org/2000/svg" xmlns:xlink="http://www.w3.org/1999/xlink" xmlns:lucid="lucid" width="3500" height="1500"><g transform="translate(0 0)" lucid:page-tab-id="0_0"><path d="M0 0h3500v1500H0z" fill="#fff"/><path d="M1160 636a16 16 0 0 1 16-16h428a16 16 0 0 1 16 16v168a16 16 0 0 1-16 16h-428a16 16 0 0 1-16-16z" fill="#fff"/><path d="M1160 660h460v33h-460z" fill="#fff"/><path d="M1160 692h460v33h-460z" fill="#fff"/><path d="M1160 724h460v33h-460z" fill="#fff"/><path d="M1160 756h460v33h-460z" fill="#fff"/><path d="M1160 788h460v16a16 16 0 0 1-16 16h-428a16 16 0 0 1-16-16z" fill="#fff"/><path d="M1161 660h458-458zM1160 636a16 16 0 0 1 16-16h428a16 16 0 0 1 16 16v168a16 16 0 0 1-16 16h-428a16 16 0 0 1-16-16zM1220 661v158zM1432.05 661v158z" stroke="#000" stroke-width="2" fill="none"/><use xlink:href="#a" transform="matrix(1,0,0,1,1170,620) translate(182.27734375 26.5478515625)"/><use xlink:href="#b" transform="matrix(1,0,0,1,1165,662.5) translate(13.205078125 20.0478515625)"/><use xlink:href="#c" transform="matrix(1,0,0,1,1225,662.5) translate(57.36572265625 20.0478515625)"/><use xlink:href="#d" transform="matrix(1,0,0,1,1437.0537109375,662.5) translate(73.99267578125 20.0478515625)"/><use xlink:href="#e" transform="matrix(1,0,0,1,1225,694.5) translate(56.99658203125 20.0478515625)"/><use xlink:href="#f" transform="matrix(1,0,0,1,1437.0537109375,694.5) translate(39.57470703125 20.0478515625)"/><use xlink:href="#g" transform="matrix(1,0,0,1,1225,726.5) translate(58.662109375 20.0478515625)"/><use xlink:href="#f" transform="matrix(1,0,0,1,1437.0537109375,726.5) translate(39.57470703125 20.0478515625)"/><use xlink:href="#h" transform="matrix(1,0,0,1,1225,758.5) translate(85.6796875 20.0478515625)"/><use xlink:href="#d" transform="matrix(1,0,0,1,1437.0537109375,758.5) translate(73.99267578125 20.0478515625)"/><use xlink:href="#i" transform="matrix(1,0,0,1,1165,790.5) translate(13.64013671875 20.0478515625)"/><use xlink:href="#j" transform="matrix(1,0,0,1,1225,790.5) translate(69.841796875 20.0478515625)"/><path d="M380 956a16 16 0 0 1 16-16h428a16 16 0 0 1 16 16v136a16 16 0 0 1-16 16H396a16 16 0 0 1-16-16z" fill="#fff"/><path d="M380 980h460v33H380z" fill="#fff"/><path d="M380 1012h460v33H380z" fill="#fff"/><path d="M380 1044h460v33H380z" fill="#fff"/><path d="M380 1076h460v16a16 16 0 0 1-16 16H396a16 16 0 0 1-16-16z" fill="#fff"/><path d="M381 980h458-458zM380 956a16 16 0 0 1 16-16h428a16 16 0 0 1 16 16v136a16 16 0 0 1-16 16H396a16 16 0 0 1-16-16zM440 981v126zM652.05 981v126z" stroke="#000" stroke-width="2" fill="none"/><use xlink:href="#k" transform="matrix(1,0,0,1,390,940) translate(187.65625 26.5478515625)"/><use xlink:href="#b" transform="matrix(1,0,0,1,385,982.5) translate(13.205078125 20.0478515625)"/><use xlink:href="#l" transform="matrix(1,0,0,1,445,982.5) translate(57.05810546875 20.0478515625)"/><use xlink:href="#d" transform="matrix(1,0,0,1,657.0537109375,982.5) translate(73.99267578125 20.0478515625)"/><use xlink:href="#e" transform="matrix(1,0,0,1,445,1014.5) translate(56.99658203125 20.0478515625)"/><use xlink:href="#f" transform="matrix(1,0,0,1,657.0537109375,1014.5) translate(39.57470703125 20.0478515625)"/><use xlink:href="#g" transform="matrix(1,0,0,1,445,1046.5) translate(58.662109375 20.0478515625)"/><use xlink:href="#f" transform="matrix(1,0,0,1,657.0537109375,1046.5) translate(39.57470703125 20.0478515625)"/><use xlink:href="#h" transform="matrix(1,0,0,1,445,1078.5) translate(85.6796875 20.0478515625)"/><use xlink:href="#d" transform="matrix(1,0,0,1,657.0537109375,1078.5) translate(73.99267578125 20.0478515625)"/><path d="M1160 912a16 16 0 0 1 16-16h428a16 16 0 0 1 16 16v168a16 16 0 0 1-16 16h-428a16 16 0 0 1-16-16z" fill="#fff"/><path d="M1160 936h460v33h-460z" fill="#fff"/><path d="M1160 968h460v33h-460z" fill="#fff"/><path d="M1160 1000h460v33h-460z" fill="#fff"/><path d="M1160 1032h460v33h-460z" fill="#fff"/><path d="M1160 1064h460v16a16 16 0 0 1-16 16h-428a16 16 0 0 1-16-16z" fill="#fff"/><path d="M1161 936h458-458zM1160 912a16 16 0 0 1 16-16h428a16 16 0 0 1 16 16v168a16 16 0 0 1-16 16h-428a16 16 0 0 1-16-16zM1220 937v158zM1432.05 937v158z" stroke="#000" stroke-width="2" fill="none"/><use xlink:href="#m" transform="matrix(1,0,0,1,1170,896) translate(184.5712890625 26.5478515625)"/><use xlink:href="#b" transform="matrix(1,0,0,1,1165,938.5) translate(13.205078125 20.0478515625)"/><use xlink:href="#n" transform="matrix(1,0,0,1,1225,938.5) translate(60.15625 20.0478515625)"/><use xlink:href="#d" transform="matrix(1,0,0,1,1437.0537109375,938.5) translate(73.99267578125 20.0478515625)"/><use xlink:href="#o" transform="matrix(1,0,0,1,1225,970.5) translate(77.998046875 20.0478515625)"/><use xlink:href="#f" transform="matrix(1,0,0,1,1437.0537109375,970.5) translate(39.57470703125 20.0478515625)"/><use xlink:href="#p" transform="matrix(1,0,0,1,1225,1002.5) translate(77.3212890625 20.0478515625)"/><use xlink:href="#d" transform="matrix(1,0,0,1,1437.0537109375,1002.5) translate(73.99267578125 20.0478515625)"/><use xlink:href="#i" transform="matrix(1,0,0,1,1165,1034.5) translate(13.64013671875 20.0478515625)"/><use xlink:href="#l" transform="matrix(1,0,0,1,1225,1034.5) translate(57.05810546875 20.0478515625)"/><use xlink:href="#i" transform="matrix(1,0,0,1,1165,1066.5) translate(13.64013671875 20.0478515625)"/><use xlink:href="#j" transform="matrix(1,0,0,1,1225,1066.5) translate(69.841796875 20.0478515625)"/><path d="M1940 476a16 16 0 0 1 16-16h428a16 16 0 0 1 16 16v168a16 16 0 0 1-16 16h-428a16 16 0 0 1-16-16z" fill="#fff"/><path d="M1940 500h460v33h-460z" fill="#fff"/><path d="M1940 532h460v33h-460z" fill="#fff"/><path d="M1940 564h460v33h-460z" fill="#fff"/><path d="M1940 596h460v33h-460z" fill="#fff"/><path d="M1940 628h460v16a16 16 0 0 1-16 16h-428a16 16 0 0 1-16-16z" fill="#fff"/><path d="M1941 500h458-458zM1940 476a16 16 0 0 1 16-16h428a16 16 0 0 1 16 16v168a16 16 0 0 1-16 16h-428a16 16 0 0 1-16-16zM2000 501v158zM2212.05 501v158z" stroke="#000" stroke-width="2" fill="none"/><use xlink:href="#q" transform="matrix(1,0,0,1,1950,460) translate(187.7705078125 26.5478515625)"/><use xlink:href="#b" transform="matrix(1,0,0,1,1945,502.5) translate(13.205078125 20.0478515625)"/><use xlink:href="#r" transform="matrix(1,0,0,1,2005,502.5) translate(60.08154296875 20.0478515625)"/><use xlink:href="#d" transform="matrix(1,0,0,1,2217.0537109375,502.5) translate(73.99267578125 20.0478515625)"/><use xlink:href="#s" transform="matrix(1,0,0,1,2005,534.5) translate(59.875 20.0478515625)"/><use xlink:href="#t" transform="matrix(1,0,0,1,2217.0537109375,534.5) translate(67.23388671875 20.0478515625)"/><use xlink:href="#u" transform="matrix(1,0,0,1,2005,566.5) translate(63.0654296875 20.0478515625)"/><use xlink:href="#t" transform="matrix(1,0,0,1,2217.0537109375,566.5) translate(67.23388671875 20.0478515625)"/><use xlink:href="#i" transform="matrix(1,0,0,1,1945,598.5) translate(13.64013671875 20.0478515625)"/><use xlink:href="#v" transform="matrix(1,0,0,1,2005,598.5) translate(74.6669921875 20.0478515625)"/><use xlink:href="#i" transform="matrix(1,0,0,1,1945,630.5) translate(13.64013671875 20.0478515625)"/><use xlink:href="#n" transform="matrix(1,0,0,1,2005,630.5) translate(60.15625 20.0478515625)"/><use xlink:href="#w" transform="matrix(1,0,0,1,2217.0537109375,630.5) translate(67.93701171875 20.0478515625)"/><path d="M1960 879.65a16 16 0 0 1 16-16h428a16 16 0 0 1 16 16v104a16 16 0 0 1-16 16h-428a16 16 0 0 1-16-16z" fill="#fff"/><path d="M1960 903.65h460v33h-460z" fill="#fff"/><path d="M1960 935.65h460v33h-460z" fill="#fff"/><path d="M1960 967.65h460v16a16 16 0 0 1-16 16h-428a16 16 0 0 1-16-16z" fill="#fff"/><path d="M1961 903.65h458-458zM1960 879.65a16 16 0 0 1 16-16h428a16 16 0 0 1 16 16v104a16 16 0 0 1-16 16h-428a16 16 0 0 1-16-16zM2020 904.65v94zM2232.05 904.65v94z" stroke="#000" stroke-width="2" fill="none"/><use xlink:href="#x" transform="matrix(1,0,0,1,1970,863.6521739130435) translate(192.35400390625 26.5478515625)"/><use xlink:href="#b" transform="matrix(1,0,0,1,1965,906.1521739130435) translate(13.205078125 20.0478515625)"/><use xlink:href="#y" transform="matrix(1,0,0,1,2025,906.1521739130435) translate(66.50634765625 20.0478515625)"/><use xlink:href="#d" transform="matrix(1,0,0,1,2237.0537109375,906.1521739130435) translate(73.99267578125 20.0478515625)"/><use xlink:href="#i" transform="matrix(1,0,0,1,1965,938.1521739130435) translate(13.64013671875 20.0478515625)"/><use xlink:href="#n" transform="matrix(1,0,0,1,2025,938.1521739130435) translate(60.15625 20.0478515625)"/><use xlink:href="#i" transform="matrix(1,0,0,1,1965,970.1521739130435) translate(13.64013671875 20.0478515625)"/><use xlink:href="#v" transform="matrix(1,0,0,1,2025,970.1521739130435) translate(74.6669921875 20.0478515625)"/><path d="M1160 1216a16 16 0 0 1 16-16h428a16 16 0 0 1 16 16v72a16 16 0 0 1-16 16h-428a16 16 0 0 1-16-16z" fill="#fff"/><path d="M1160 1240h460v33h-460z" fill="#fff"/><path d="M1160 1272h460v16a16 16 0 0 1-16 16h-428a16 16 0 0 1-16-16z" fill="#fff"/><path d="M1161 1240h458-458zM1160 1216a16 16 0 0 1 16-16h428a16 16 0 0 1 16 16v72a16 16 0 0 1-16 16h-428a16 16 0 0 1-16-16zM1220 1241v62zM1432.05 1241v62z" stroke="#000" stroke-width="2" fill="none"/><use xlink:href="#z" transform="matrix(1,0,0,1,1170,1200) translate(197.53076171875 26.5478515625)"/><use xlink:href="#b" transform="matrix(1,0,0,1,1165,1242.5) translate(13.205078125 20.0478515625)"/><use xlink:href="#j" transform="matrix(1,0,0,1,1225,1242.5) translate(69.841796875 20.0478515625)"/><use xlink:href="#d" transform="matrix(1,0,0,1,1437.0537109375,1242.5) translate(73.99267578125 20.0478515625)"/><use xlink:href="#o" transform="matrix(1,0,0,1,1225,1274.5) translate(77.998046875 20.0478515625)"/><use xlink:href="#f" transform="matrix(1,0,0,1,1437.0537109375,1274.5) translate(39.57470703125 20.0478515625)"/><path d="M1641 1256.02h8a12 12 0 0 0 12-12V816.36a12 12 0 0 0-12-12h-9.2M1621 1256.02h20m0 10v-20M1621.42 804.36h20m-20 10l20-10m-20-10l20 10" stroke="#3a414a" stroke-width="2" fill="none"/><path d="M380 736a16 16 0 0 1 16-16h428a16 16 0 0 1 16 16v104a16 16 0 0 1-16 16H396a16 16 0 0 1-16-16z" fill="#fff"/><path d="M380 760h460v33H380z" fill="#fff"/><path d="M380 792h460v33H380z" fill="#fff"/><path d="M380 824h460v16a16 16 0 0 1-16 16H396a16 16 0 0 1-16-16z" fill="#fff"/><path d="M381 760h458-458zM380 736a16 16 0 0 1 16-16h428a16 16 0 0 1 16 16v104a16 16 0 0 1-16 16H396a16 16 0 0 1-16-16zM440 761v94zM652.05 761v94z" stroke="#000" stroke-width="2" fill="none"/><use xlink:href="#A" transform="matrix(1,0,0,1,390,720) translate(154.61376953125 26.5478515625)"/><use xlink:href="#B" transform="matrix(1,0,0,1,385,762.5) translate(13.205078125 20.0478515625)"/><use xlink:href="#C" transform="matrix(1,0,0,1,445,762.5) translate(24.015625 20.0478515625)"/><use xlink:href="#i" transform="matrix(1,0,0,1,385,794.5) translate(13.64013671875 20.0478515625)"/><use xlink:href="#D" transform="matrix(1,0,0,1,445,794.5) translate(57.36572265625 20.0478515625)"/><use xlink:href="#i" transform="matrix(1,0,0,1,385,826.5) translate(13.64013671875 20.0478515625)"/><use xlink:href="#E" transform="matrix(1,0,0,1,445,826.5) translate(60.15625 20.0478515625)"/><path d="M380 1216a16 16 0 0 1 16-16h428a16 16 0 0 1 16 16v72a16 16 0 0 1-16 16H396a16 16 0 0 1-16-16z" fill="#fff"/><path d="M380 1240h460v33H380z" fill="#fff"/><path d="M380 1272h460v16a16 16 0 0 1-16 16H396a16 16 0 0 1-16-16z" fill="#fff"/><path d="M381 1240h458-458zM380 1216a16 16 0 0 1 16-16h428a16 16 0 0 1 16 16v72a16 16 0 0 1-16 16H396a16 16 0 0 1-16-16zM440 1241v62zM652.05 1241v62z" stroke="#000" stroke-width="2" fill="none"/><use xlink:href="#F" transform="matrix(1,0,0,1,390,1200) translate(163.99169921875 26.5478515625)"/><use xlink:href="#i" transform="matrix(1,0,0,1,385,1242.5) translate(13.64013671875 20.0478515625)"/><use xlink:href="#j" transform="matrix(1,0,0,1,445,1242.5) translate(69.841796875 20.0478515625)"/><use xlink:href="#i" transform="matrix(1,0,0,1,385,1274.5) translate(13.64013671875 20.0478515625)"/><use xlink:href="#l" transform="matrix(1,0,0,1,445,1274.5) translate(57.05810546875 20.0478515625)"/><path d="M1140.18 675.8H1022a12 12 0 0 0-12 12V796a12 12 0 0 1-12 12H859.82M1158.55 675.8h-20m20-10l-20 10m20 10l-20-10M841.45 808h20m-20 10l20-10m-20-10l20 10M1140.18 952H1102a12 12 0 0 1-12-12v-88a12 12 0 0 0-12-12H859.82M1158.55 952h-20m20-10l-20 10m20 10l-20-10M841.45 840h20m-20 10l20-10m-20-10l20 10M1140.18 1256.02H859.82M1158.55 1256.02h-20m20-10l-20 10m20 10l-20-10M841.45 1256.02h20m-20 10l20-10m-20-10l20 10M360.18 995.88H351a12 12 0 0 0-12 12v268.27a12 12 0 0 0 12 12h9.2M378.55 995.88h-20m20-10l-20 10m20 10l-20-10M378.56 1288.15h-20m20-10l-20 10m20 10l-20-10M1139 1219.86h-8a12 12 0 0 1-12-12V1092a12 12 0 0 1 12-12h9.18M1159 1219.86h-20m0-10v20M1158.55 1080h-20m20-10l-20 10m20 10l-20-10M1139 1048h-8a12 12 0 0 1-12-12v-28.12a12 12 0 0 0-12-12H859.82M1159 1048h-20m0-10v20M841.45 995.88h20m-20 10l20-10m-20-10l20 10M3041 836.02h8a12 12 0 0 1 12 12v88.12a12 12 0 0 1-12 12h-576a12 12 0 0 0-12 12v11.74a12 12 0 0 1-12 12h-9.2M3021 836.02h20m0 10v-20M2421.43 983.88h20m-20 10l20-10m-20-10l20 10" stroke="#3a414a" stroke-width="2" fill="none"/><path d="M2560 796a16 16 0 0 1 16-16h428a16 16 0 0 1 16 16v72a16 16 0 0 1-16 16h-428a16 16 0 0 1-16-16z" fill="#fff"/><path d="M2560 820h460v33h-460z" fill="#fff"/><path d="M2560 852h460v16a16 16 0 0 1-16 16h-428a16 16 0 0 1-16-16z" fill="#fff"/><path d="M2561 820h458-458zM2560 796a16 16 0 0 1 16-16h428a16 16 0 0 1 16 16v72a16 16 0 0 1-16 16h-428a16 16 0 0 1-16-16zM2620 821v62zM2832.05 821v62z" stroke="#000" stroke-width="2" fill="none"/><use xlink:href="#G" transform="matrix(1,0,0,1,2570,780) translate(203.8984375 26.5478515625)"/><use xlink:href="#b" transform="matrix(1,0,0,1,2565,822.5) translate(13.205078125 20.0478515625)"/><use xlink:href="#v" transform="matrix(1,0,0,1,2625,822.5) translate(74.6669921875 20.0478515625)"/><use xlink:href="#d" transform="matrix(1,0,0,1,2837.0537109375,822.5) translate(73.99267578125 20.0478515625)"/><use xlink:href="#H" transform="matrix(1,0,0,1,2625,854.5) translate(68.8310546875 20.0478515625)"/><use xlink:href="#d" transform="matrix(1,0,0,1,2837.0537109375,854.5) translate(73.99267578125 20.0478515625)"/><path d="M2419.82 612H2468a12 12 0 0 1 12 12v200.02a12 12 0 0 0 12 12h47M2401.45 612h20m-20 10l20-10m-20-10l20 10M2559 836.02h-20m0-10v20M1939 951.74h-148.87a.13.13 0 0 0-.13.13.13.13 0 0 1-.13.13H1641M1959 951.74h-20m0-10v20M1621 952h20m0 10v-20M1641 916h207a12 12 0 0 0 12-12V656a12 12 0 0 1 12-12h48.18M1621 916h20m0 10v-20M1938.55 644h-20m20-10l-20 10m20 10l-20-10" stroke="#3a414a" stroke-width="2" fill="none"/><path d="M1160 436a16 16 0 0 1 16-16h428a16 16 0 0 1 16 16v104a16 16 0 0 1-16 16h-428a16 16 0 0 1-16-16z" fill="#fff"/><path d="M1160 460h460v33h-460z" fill="#fff"/><path d="M1160 492h460v33h-460z" fill="#fff"/><path d="M1160 524h460v16a16 16 0 0 1-16 16h-428a16 16 0 0 1-16-16z" fill="#fff"/><path d="M1161 460h458-458zM1160 436a16 16 0 0 1 16-16h428a16 16 0 0 1 16 16v104a16 16 0 0 1-16 16h-428a16 16 0 0 1-16-16zM1220 461v94zM1436.1 461v94z" stroke="#000" stroke-width="2" fill="none"/><use xlink:href="#I" transform="matrix(1,0,0,1,1170,420) translate(191.481513671875 26.089501953125)"/><use xlink:href="#J" transform="matrix(1,0,0,1,1165,462.5) translate(14.03072265625 19.589501953125)"/><use xlink:href="#K" transform="matrix(1,0,0,1,1225,462.5) translate(69.259833984375 19.589501953125)"/><use xlink:href="#L" transform="matrix(1,0,0,1,1225,494.5) translate(80.5111083984375 19.589501953125)"/><use xlink:href="#M" transform="matrix(1,0,0,1,1441.1099511718494,494.5) translate(73.0431884765625 19.589501953125)"/><use xlink:href="#N" transform="matrix(1,0,0,1,1165,526.5) translate(14.435327148437498 19.589501953125)"/><use xlink:href="#O" transform="matrix(1,0,0,1,1225,526.5) translate(31.43953125 19.589501953125)"/><path d="M861 775.95h57a12 12 0 0 0 12-12V552.22a12 12 0 0 1 12-12h197M841 775.95h20m0 10v-20M1159 540.22h-20m0-10v20" stroke="#3a414a" stroke-width="2" fill="none"/><defs><path fill="#3a414a" d="M657 26c-323 0-524-166-541-416h195c15 169 171 246 346 246 202 0 356-106 356-265 5-203-294-238-475-293-239-73-380-191-380-389 0-252 224-419 512-419 294 0 499 171 508 396H992c-17-145-151-228-328-228-193 0-321 102-321 242 0 156 175 211 284 241l149 41c160 44 422 134 422 412 0 244-197 432-541 432" id="P"/><path fill="#3a414a" d="M598-1118v154H368v674c0 100 37 144 132 144 23 0 62-6 92-12L629-6c-37 13-88 20-134 20-193 0-307-107-307-290v-688H20v-154h168v-266h180v266h230" id="Q"/><path fill="#3a414a" d="M537 14c-226 0-379-139-379-422v-710h180v695c0 172 97 275 253 275 160 0 281-109 281-300v-670h181V0H879v-209C806-46 684 14 537 14" id="R"/><path fill="#3a414a" d="M577 24c-279 0-473-224-473-580 0-354 195-576 474-576 218 0 287 134 324 193h14v-551h180V0H922v-173h-20C865-111 790 24 577 24zm27-161c203 0 314-172 314-421 0-247-108-413-314-413-212 0-317 181-317 413 0 235 108 421 317 421" id="S"/><path fill="#3a414a" d="M628 24c-324 0-524-230-524-574 0-343 198-582 503-582 237 0 487 146 487 559v75H286c9 234 145 362 343 362 132 0 231-58 273-172l174 48C1024-91 857 24 628 24zM287-650h624c-17-190-120-322-304-322-192 0-309 151-320 322" id="T"/><path fill="#3a414a" d="M338-670V0H158v-1118h173l1 207c72-158 192-221 342-221 226 0 378 139 378 422V0H872v-695c0-172-96-275-252-275-161 0-282 109-282 300" id="U"/><path fill="#3a414a" d="M538 24C308 24 148-78 108-271l171-41c32 123 123 178 257 178 156 0 256-77 256-169 0-77-54-128-164-154l-186-44c-203-48-300-148-300-305 0-192 176-326 414-326 230 0 351 112 402 269l-163 42c-31-80-94-158-238-158-133 0-233 69-233 162 0 83 57 129 188 160l169 40c203 48 298 149 298 302 0 196-179 339-441 339" id="V"/><g id="a"><use transform="matrix(0.0087890625,0,0,0.0087890625,0,0)" xlink:href="#P"/><use transform="matrix(0.0087890625,0,0,0.0087890625,11.548828125,0)" xlink:href="#Q"/><use transform="matrix(0.0087890625,0,0,0.0087890625,17.4375,0)" xlink:href="#R"/><use transform="matrix(0.0087890625,0,0,0.0087890625,28.0810546875,0)" xlink:href="#S"/><use transform="matrix(0.0087890625,0,0,0.0087890625,39.1025390625,0)" xlink:href="#T"/><use transform="matrix(0.0087890625,0,0,0.0087890625,49.5966796875,0)" xlink:href="#U"/><use transform="matrix(0.0087890625,0,0,0.0087890625,60.2314453125,0)" xlink:href="#Q"/><use transform="matrix(0.0087890625,0,0,0.0087890625,65.9443359375,0)" xlink:href="#V"/></g><path fill="#3a414a" d="M180 0v-1490h510c348 0 508 209 508 474 0 266-160 477-507 477H370V0H180zm190-706h312c236 0 327-133 327-310 0-176-91-307-329-307H370v617" id="W"/><path fill="#3a414a" d="M180 0v-1490h190c0 262 1 526-3 784 217-279 467-523 702-784h249L716-845 1319 0h-225L585-716 370-489V0H180" id="X"/><g id="b"><use transform="matrix(0.0087890625,0,0,0.0087890625,0,0)" xlink:href="#W"/><use transform="matrix(0.0087890625,0,0,0.0087890625,11.49609375,0)" xlink:href="#X"/></g><path fill="#3a414a" d="M934 0v166H0V0h934" id="Y"/><path fill="#3a414a" d="M158 0v-1118h180V0H158zm91-1301c-68 0-125-53-125-119s57-119 125-119c69 0 126 53 126 119s-57 119-126 119" id="Z"/><g id="c"><use transform="matrix(0.0087890625,0,0,0.0087890625,0,0)" xlink:href="#V"/><use transform="matrix(0.0087890625,0,0,0.0087890625,9.5009765625,0)" xlink:href="#Q"/><use transform="matrix(0.0087890625,0,0,0.0087890625,15.3896484375,0)" xlink:href="#R"/><use transform="matrix(0.0087890625,0,0,0.0087890625,26.033203125,0)" xlink:href="#S"/><use transform="matrix(0.0087890625,0,0,0.0087890625,37.0546875,0)" xlink:href="#T"/><use transform="matrix(0.0087890625,0,0,0.0087890625,47.548828125,0)" xlink:href="#U"/><use transform="matrix(0.0087890625,0,0,0.0087890625,58.18359375,0)" xlink:href="#Q"/><use transform="matrix(0.0087890625,0,0,0.0087890625,64.072265625,0)" xlink:href="#Y"/><use transform="matrix(0.0087890625,0,0,0.0087890625,72.8876953125,0)" xlink:href="#Z"/><use transform="matrix(0.0087890625,0,0,0.0087890625,77.2470703125,0)" xlink:href="#S"/></g><path fill="#3a414a" d="M370-1490V0H180v-1490h190" id="aa"/><path fill="#3a414a" d="M180 0v-1490h224l606 953c40 63 108 177 176 312-27-437-7-821-13-1265h190V0h-226C860-448 622-778 356-1262c27 476 11 792 15 1262H180" id="ab"/><path fill="#3a414a" d="M98-1322v-168h1126v168H757V0H567v-1322H98" id="ac"/><g id="d"><use transform="matrix(0.0087890625,0,0,0.0087890625,0,0)" xlink:href="#aa"/><use transform="matrix(0.0087890625,0,0,0.0087890625,4.833984375,0)" xlink:href="#ab"/><use transform="matrix(0.0087890625,0,0,0.0087890625,18.3955078125,0)" xlink:href="#ac"/></g><path fill="#3a414a" d="M678-1118v154H420V0H240v-964H20v-154h220v-149c0-194 155-293 318-293 85 0 141 18 168 30l-50 154c-19-6-47-17-97-17-111 0-159 58-159 166v109h258" id="ad"/><path fill="#3a414a" d="M158 0v-1118h174v172h12c41-113 157-188 290-188 26 0 70 2 91 3v181c-11-2-60-10-108-10-161 0-279 109-279 260V0H158" id="ae"/><path fill="#3a414a" d="M471 26C259 26 90-98 90-318c0-256 228-303 435-329 202-27 287-16 287-108 0-139-79-219-234-219-161 0-248 86-283 164l-173-57c86-203 278-265 451-265 150 0 419 46 419 395V0H815v-152h-12C765-73 660 26 471 26zm31-159c199 0 310-134 310-271v-155c-30 35-226 55-295 64-131 17-246 59-246 186 0 116 97 176 231 176" id="af"/><path fill="#3a414a" d="M158 0v-1118h175l1 205c55-151 181-225 313-225 147 0 245 90 285 228 53-141 190-228 352-228 194 0 352 125 352 384V0h-181v-749c0-161-105-225-225-225-151 0-243 103-243 244V0H807v-767c0-124-93-207-219-207-131 0-250 92-250 270V0H158" id="ag"/><g id="e"><use transform="matrix(0.0087890625,0,0,0.0087890625,0,0)" xlink:href="#ad"/><use transform="matrix(0.0087890625,0,0,0.0087890625,6.662109375,0)" xlink:href="#Z"/><use transform="matrix(0.0087890625,0,0,0.0087890625,11.021484375,0)" xlink:href="#ae"/><use transform="matrix(0.0087890625,0,0,0.0087890625,17.7978515625,0)" xlink:href="#V"/><use transform="matrix(0.0087890625,0,0,0.0087890625,27.298828125,0)" xlink:href="#Q"/><use transform="matrix(0.0087890625,0,0,0.0087890625,33.1875,0)" xlink:href="#Y"/><use transform="matrix(0.0087890625,0,0,0.0087890625,42.0029296875,0)" xlink:href="#U"/><use transform="matrix(0.0087890625,0,0,0.0087890625,52.6376953125,0)" xlink:href="#af"/><use transform="matrix(0.0087890625,0,0,0.0087890625,62.7451171875,0)" xlink:href="#ag"/><use transform="matrix(0.0087890625,0,0,0.0087890625,78.5126953125,0)" xlink:href="#T"/></g><path fill="#3a414a" d="M600 0L52-1490h200c166 485 304 806 458 1336 156-533 285-846 449-1336h202L819 0H600" id="ah"/><path fill="#3a414a" d="M52 0l541-1490h220L1361 0h-200l-149-416H398L254 0H52zm404-582h497c-103-290-145-390-251-756-108 377-145 460-246 756" id="ai"/><path fill="#3a414a" d="M180 0v-1490h510c348 0 508 194 508 460 0 198-88 351-276 417L1256 0h-220L726-579c-117 2-238 0-356 1V0H180zm190-747h312c235 0 327-108 327-283 0-177-92-293-329-293H370v576" id="aj"/><path fill="#3a414a" d="M783 20c-382 0-661-292-661-764 0-473 279-766 661-766 302 0 548 182 601 489h-190c-42-204-217-313-411-313-268 0-476 208-476 590 0 381 209 588 476 588 195 0 369-110 411-313h190c-52 303-296 489-601 489" id="ak"/><path fill="#3a414a" d="M180 0v-1490h190v644h782v-644h190V0h-190v-678H370V0H180" id="al"/><path fill="#3a414a" d="M218-607c0-325 108-727 258-974h175c-155 315-250 682-250 974 0 265 78 531 250 886H476C306-10 218-315 218-607" id="am"/><path fill="#3a414a" d="M96 279C273-86 346-350 346-607c0-292-95-659-250-974h175c150 246 258 650 258 974 0 297-91 602-258 886H96" id="an"/><g id="f"><use transform="matrix(0.0087890625,0,0,0.0087890625,0,0)" xlink:href="#ah"/><use transform="matrix(0.0087890625,0,0,0.0087890625,11.1884765625,0)" xlink:href="#ai"/><use transform="matrix(0.0087890625,0,0,0.0087890625,23.607421875,0)" xlink:href="#aj"/><use transform="matrix(0.0087890625,0,0,0.0087890625,35.19140625,0)" xlink:href="#ak"/><use transform="matrix(0.0087890625,0,0,0.0087890625,48.33984375,0)" xlink:href="#al"/><use transform="matrix(0.0087890625,0,0,0.0087890625,61.716796875,0)" xlink:href="#ai"/><use transform="matrix(0.0087890625,0,0,0.0087890625,74.1357421875,0)" xlink:href="#aj"/><use transform="matrix(0.0087890625,0,0,0.0087890625,85.7197265625,0)" xlink:href="#am"/><use transform="matrix(0.0087890625,0,0,0.0087890625,92.28515625,0)" xlink:href="#an"/></g><path fill="#3a414a" d="M338-1490V0H158v-1490h180" id="ao"/><g id="g"><use transform="matrix(0.0087890625,0,0,0.0087890625,0,0)" xlink:href="#ao"/><use transform="matrix(0.0087890625,0,0,0.0087890625,4.359375,0)" xlink:href="#af"/><use transform="matrix(0.0087890625,0,0,0.0087890625,14.466796875,0)" xlink:href="#V"/><use transform="matrix(0.0087890625,0,0,0.0087890625,23.9677734375,0)" xlink:href="#Q"/><use transform="matrix(0.0087890625,0,0,0.0087890625,29.8564453125,0)" xlink:href="#Y"/><use transform="matrix(0.0087890625,0,0,0.0087890625,38.671875,0)" xlink:href="#U"/><use transform="matrix(0.0087890625,0,0,0.0087890625,49.306640625,0)" xlink:href="#af"/><use transform="matrix(0.0087890625,0,0,0.0087890625,59.4140625,0)" xlink:href="#ag"/><use transform="matrix(0.0087890625,0,0,0.0087890625,75.181640625,0)" xlink:href="#T"/></g><path fill="#3a414a" d="M611 442c-248 0-391-105-460-228l146-94c47 65 117 165 314 165 178 0 307-82 307-266v-224h-17C863-141 792-18 576-18c-268 0-472-195-472-546 0-346 197-568 476-568 216 0 288 133 326 193h17v-179h175V29c0 289-215 413-487 413zm-5-620c203 0 314-146 314-390 0-237-108-403-314-403-213 0-319 180-319 403 0 230 109 390 319 390" id="ap"/><g id="h"><use transform="matrix(0.0087890625,0,0,0.0087890625,0,0)" xlink:href="#af"/><use transform="matrix(0.0087890625,0,0,0.0087890625,10.107421875,0)" xlink:href="#ap"/><use transform="matrix(0.0087890625,0,0,0.0087890625,21.146484375,0)" xlink:href="#T"/></g><path fill="#3a414a" d="M180 0v-1490h901v168H370v510h643v168H370V0H180" id="aq"/><g id="i"><use transform="matrix(0.0087890625,0,0,0.0087890625,0,0)" xlink:href="#aq"/><use transform="matrix(0.0087890625,0,0,0.0087890625,10.6259765625,0)" xlink:href="#X"/></g><path fill="#3a414a" d="M481 0L54-1118h197c107 314 236 620 325 951 87-331 217-637 324-951h197L670 0H481" id="ar"/><g id="j"><use transform="matrix(0.0087890625,0,0,0.0087890625,0,0)" xlink:href="#ao"/><use transform="matrix(0.0087890625,0,0,0.0087890625,4.359375,0)" xlink:href="#T"/><use transform="matrix(0.0087890625,0,0,0.0087890625,14.501953125,0)" xlink:href="#ar"/><use transform="matrix(0.0087890625,0,0,0.0087890625,24.2666015625,0)" xlink:href="#T"/><use transform="matrix(0.0087890625,0,0,0.0087890625,34.7607421875,0)" xlink:href="#ao"/><use transform="matrix(0.0087890625,0,0,0.0087890625,39.1201171875,0)" xlink:href="#Y"/><use transform="matrix(0.0087890625,0,0,0.0087890625,47.935546875,0)" xlink:href="#Z"/><use transform="matrix(0.0087890625,0,0,0.0087890625,52.294921875,0)" xlink:href="#S"/></g><path fill="#3a414a" d="M613 24c-304 0-509-231-509-576 0-350 205-580 509-580 216 0 392 114 453 309l-173 49c-33-115-133-197-280-197-223 0-326 196-326 419 0 220 103 415 326 415 150 0 252-85 285-206l172 49C1010-95 832 24 613 24" id="as"/><path fill="#3a414a" d="M338-670V0H158v-1490h180v566c73-149 190-208 336-208 226 0 379 139 379 422V0H872v-695c0-172-96-275-252-275-161 0-282 109-282 300" id="at"/><g id="k"><use transform="matrix(0.0087890625,0,0,0.0087890625,0,0)" xlink:href="#Q"/><use transform="matrix(0.0087890625,0,0,0.0087890625,5.712890625,0)" xlink:href="#T"/><use transform="matrix(0.0087890625,0,0,0.0087890625,16.3828125,0)" xlink:href="#af"/><use transform="matrix(0.0087890625,0,0,0.0087890625,26.490234375,0)" xlink:href="#as"/><use transform="matrix(0.0087890625,0,0,0.0087890625,36.7734375,0)" xlink:href="#at"/><use transform="matrix(0.0087890625,0,0,0.0087890625,47.4169921875,0)" xlink:href="#T"/><use transform="matrix(0.0087890625,0,0,0.0087890625,57.9111328125,0)" xlink:href="#ae"/></g><g id="l"><use transform="matrix(0.0087890625,0,0,0.0087890625,0,0)" xlink:href="#Q"/><use transform="matrix(0.0087890625,0,0,0.0087890625,5.712890625,0)" xlink:href="#T"/><use transform="matrix(0.0087890625,0,0,0.0087890625,16.3828125,0)" xlink:href="#af"/><use transform="matrix(0.0087890625,0,0,0.0087890625,26.490234375,0)" xlink:href="#as"/><use transform="matrix(0.0087890625,0,0,0.0087890625,36.7734375,0)" xlink:href="#at"/><use transform="matrix(0.0087890625,0,0,0.0087890625,47.4169921875,0)" xlink:href="#T"/><use transform="matrix(0.0087890625,0,0,0.0087890625,57.9111328125,0)" xlink:href="#ae"/><use transform="matrix(0.0087890625,0,0,0.0087890625,64.6875,0)" xlink:href="#Y"/><use transform="matrix(0.0087890625,0,0,0.0087890625,73.5029296875,0)" xlink:href="#Z"/><use transform="matrix(0.0087890625,0,0,0.0087890625,77.8623046875,0)" xlink:href="#S"/></g><path fill="#3a414a" d="M613 24c-304 0-509-231-509-576 0-350 205-580 509-580 305 0 511 230 511 580 0 345-206 576-511 576zm0-161c226 0 329-195 329-415 0-222-103-419-329-419-223 0-326 196-326 419 0 220 103 415 326 415" id="au"/><g id="m"><use transform="matrix(0.0087890625,0,0,0.0087890625,0,0)" xlink:href="#ak"/><use transform="matrix(0.0087890625,0,0,0.0087890625,13.1484375,0)" xlink:href="#au"/><use transform="matrix(0.0087890625,0,0,0.0087890625,23.94140625,0)" xlink:href="#R"/><use transform="matrix(0.0087890625,0,0,0.0087890625,34.5849609375,0)" xlink:href="#ae"/><use transform="matrix(0.0087890625,0,0,0.0087890625,41.361328125,0)" xlink:href="#V"/><use transform="matrix(0.0087890625,0,0,0.0087890625,50.8623046875,0)" xlink:href="#T"/><use transform="matrix(0.0087890625,0,0,0.0087890625,61.3564453125,0)" xlink:href="#V"/></g><g id="n"><use transform="matrix(0.0087890625,0,0,0.0087890625,0,0)" xlink:href="#as"/><use transform="matrix(0.0087890625,0,0,0.0087890625,10.283203125,0)" xlink:href="#au"/><use transform="matrix(0.0087890625,0,0,0.0087890625,21.076171875,0)" xlink:href="#R"/><use transform="matrix(0.0087890625,0,0,0.0087890625,31.7197265625,0)" xlink:href="#ae"/><use transform="matrix(0.0087890625,0,0,0.0087890625,38.49609375,0)" xlink:href="#V"/><use transform="matrix(0.0087890625,0,0,0.0087890625,47.9970703125,0)" xlink:href="#T"/><use transform="matrix(0.0087890625,0,0,0.0087890625,58.4912109375,0)" xlink:href="#Y"/><use transform="matrix(0.0087890625,0,0,0.0087890625,67.306640625,0)" xlink:href="#Z"/><use transform="matrix(0.0087890625,0,0,0.0087890625,71.666015625,0)" xlink:href="#S"/></g><g id="o"><use transform="matrix(0.0087890625,0,0,0.0087890625,0,0)" xlink:href="#U"/><use transform="matrix(0.0087890625,0,0,0.0087890625,10.634765625,0)" xlink:href="#af"/><use transform="matrix(0.0087890625,0,0,0.0087890625,20.7421875,0)" xlink:href="#ag"/><use transform="matrix(0.0087890625,0,0,0.0087890625,36.509765625,0)" xlink:href="#T"/></g><g id="p"><use transform="matrix(0.0087890625,0,0,0.0087890625,0,0)" xlink:href="#at"/><use transform="matrix(0.0087890625,0,0,0.0087890625,10.6435546875,0)" xlink:href="#au"/><use transform="matrix(0.0087890625,0,0,0.0087890625,21.4365234375,0)" xlink:href="#R"/><use transform="matrix(0.0087890625,0,0,0.0087890625,32.080078125,0)" xlink:href="#ae"/><use transform="matrix(0.0087890625,0,0,0.0087890625,38.8564453125,0)" xlink:href="#V"/></g><path fill="#3a414a" d="M180 0v-1490h190v1322h690V0H180" id="av"/><g id="q"><use transform="matrix(0.0087890625,0,0,0.0087890625,0,0)" xlink:href="#av"/><use transform="matrix(0.0087890625,0,0,0.0087890625,10.177734375,0)" xlink:href="#T"/><use transform="matrix(0.0087890625,0,0,0.0087890625,20.671875,0)" xlink:href="#as"/><use transform="matrix(0.0087890625,0,0,0.0087890625,30.955078125,0)" xlink:href="#Q"/><use transform="matrix(0.0087890625,0,0,0.0087890625,36.84375,0)" xlink:href="#R"/><use transform="matrix(0.0087890625,0,0,0.0087890625,47.4873046875,0)" xlink:href="#ae"/><use transform="matrix(0.0087890625,0,0,0.0087890625,53.96484375,0)" xlink:href="#T"/></g><g id="r"><use transform="matrix(0.0087890625,0,0,0.0087890625,0,0)" xlink:href="#ao"/><use transform="matrix(0.0087890625,0,0,0.0087890625,4.359375,0)" xlink:href="#T"/><use transform="matrix(0.0087890625,0,0,0.0087890625,14.853515625,0)" xlink:href="#as"/><use transform="matrix(0.0087890625,0,0,0.0087890625,25.13671875,0)" xlink:href="#Q"/><use transform="matrix(0.0087890625,0,0,0.0087890625,31.025390625,0)" xlink:href="#R"/><use transform="matrix(0.0087890625,0,0,0.0087890625,41.6689453125,0)" xlink:href="#ae"/><use transform="matrix(0.0087890625,0,0,0.0087890625,48.146484375,0)" xlink:href="#T"/><use transform="matrix(0.0087890625,0,0,0.0087890625,58.640625,0)" xlink:href="#Y"/><use transform="matrix(0.0087890625,0,0,0.0087890625,67.4560546875,0)" xlink:href="#Z"/><use transform="matrix(0.0087890625,0,0,0.0087890625,71.8154296875,0)" xlink:href="#S"/></g><g id="s"><use transform="matrix(0.0087890625,0,0,0.0087890625,0,0)" xlink:href="#V"/><use transform="matrix(0.0087890625,0,0,0.0087890625,9.5009765625,0)" xlink:href="#Q"/><use transform="matrix(0.0087890625,0,0,0.0087890625,15.4775390625,0)" xlink:href="#af"/><use transform="matrix(0.0087890625,0,0,0.0087890625,25.5849609375,0)" xlink:href="#ae"/><use transform="matrix(0.0087890625,0,0,0.0087890625,32.642578125,0)" xlink:href="#Q"/><use transform="matrix(0.0087890625,0,0,0.0087890625,38.53125,0)" xlink:href="#Y"/><use transform="matrix(0.0087890625,0,0,0.0087890625,46.740234375,0)" xlink:href="#Q"/><use transform="matrix(0.0087890625,0,0,0.0087890625,52.62890625,0)" xlink:href="#Z"/><use transform="matrix(0.0087890625,0,0,0.0087890625,56.98828125,0)" xlink:href="#ag"/><use transform="matrix(0.0087890625,0,0,0.0087890625,72.755859375,0)" xlink:href="#T"/></g><path d="M98-1322v-168h1126v168H757V0H567v-1322H98" id="aw"/><path d="M370-1490V0H180v-1490h190" id="ax"/><path d="M180 0v-1490h270l367 940c28 72 75 218 110 339 35-117 81-264 110-339l362-940h271V0h-187c2-448-5-837 7-1287-157 497-311 829-483 1287H842C666-458 514-784 354-1284c12 438 5 843 7 1284H180" id="ay"/><path d="M180 0v-1490h908v168H370v486h669v168H370v500h727V0H180" id="az"/><g id="t"><use transform="matrix(0.0087890625,0,0,0.0087890625,0,0)" xlink:href="#aw"/><use transform="matrix(0.0087890625,0,0,0.0087890625,11.619140625,0)" xlink:href="#ax"/><use transform="matrix(0.0087890625,0,0,0.0087890625,16.453125,0)" xlink:href="#ay"/><use transform="matrix(0.0087890625,0,0,0.0087890625,32.712890625,0)" xlink:href="#az"/></g><g id="u"><use transform="matrix(0.0087890625,0,0,0.0087890625,0,0)" xlink:href="#T"/><use transform="matrix(0.0087890625,0,0,0.0087890625,10.494140625,0)" xlink:href="#U"/><use transform="matrix(0.0087890625,0,0,0.0087890625,21.12890625,0)" xlink:href="#S"/><use transform="matrix(0.0087890625,0,0,0.0087890625,32.150390625,0)" xlink:href="#Y"/><use transform="matrix(0.0087890625,0,0,0.0087890625,40.359375,0)" xlink:href="#Q"/><use transform="matrix(0.0087890625,0,0,0.0087890625,46.248046875,0)" xlink:href="#Z"/><use transform="matrix(0.0087890625,0,0,0.0087890625,50.607421875,0)" xlink:href="#ag"/><use transform="matrix(0.0087890625,0,0,0.0087890625,66.375,0)" xlink:href="#T"/></g><g id="v"><use transform="matrix(0.0087890625,0,0,0.0087890625,0,0)" xlink:href="#at"/><use transform="matrix(0.0087890625,0,0,0.0087890625,10.6435546875,0)" xlink:href="#af"/><use transform="matrix(0.0087890625,0,0,0.0087890625,20.7509765625,0)" xlink:href="#ao"/><use transform="matrix(0.0087890625,0,0,0.0087890625,25.1103515625,0)" xlink:href="#ao"/><use transform="matrix(0.0087890625,0,0,0.0087890625,29.4697265625,0)" xlink:href="#Y"/><use transform="matrix(0.0087890625,0,0,0.0087890625,38.28515625,0)" xlink:href="#Z"/><use transform="matrix(0.0087890625,0,0,0.0087890625,42.64453125,0)" xlink:href="#S"/></g><path fill="#3a414a" d="M140 405l46-156c120 36 205 19 263-150l32-93L54-1118h197c107 313 237 620 324 950 87-331 219-637 326-950h196L606 167c-68 178-176 259-334 259-64 0-113-12-132-21" id="aA"/><path fill="#3a414a" d="M158 418v-1536h174v179h20c37-59 106-193 324-193 279 0 474 222 474 576 0 356-194 580-473 580-213 0-288-135-325-197h-14v591H158zm492-555c209 0 317-186 317-421 0-232-105-413-317-413-206 0-314 166-314 413 0 249 111 421 314 421" id="aB"/><g id="w"><use transform="matrix(0.0087890625,0,0,0.0087890625,0,0)" xlink:href="#ac"/><use transform="matrix(0.0087890625,0,0,0.0087890625,10.494140625,0)" xlink:href="#aA"/><use transform="matrix(0.0087890625,0,0,0.0087890625,20.6103515625,0)" xlink:href="#aB"/><use transform="matrix(0.0087890625,0,0,0.0087890625,31.6318359375,0)" xlink:href="#T"/></g><path fill="#3a414a" d="M65 0l393-574-370-544h210c88 136 192 297 267 435 67-142 176-302 264-435h206L661-564 1053 0H844c-94-144-206-310-287-458C484-308 366-142 273 0H65" id="aC"/><g id="x"><use transform="matrix(0.0087890625,0,0,0.0087890625,0,0)" xlink:href="#T"/><use transform="matrix(0.0087890625,0,0,0.0087890625,10.08984375,0)" xlink:href="#aC"/><use transform="matrix(0.0087890625,0,0,0.0087890625,19.916015625,0)" xlink:href="#af"/><use transform="matrix(0.0087890625,0,0,0.0087890625,30.0234375,0)" xlink:href="#ag"/><use transform="matrix(0.0087890625,0,0,0.0087890625,45.791015625,0)" xlink:href="#V"/></g><g id="y"><use transform="matrix(0.0087890625,0,0,0.0087890625,0,0)" xlink:href="#T"/><use transform="matrix(0.0087890625,0,0,0.0087890625,10.08984375,0)" xlink:href="#aC"/><use transform="matrix(0.0087890625,0,0,0.0087890625,19.916015625,0)" xlink:href="#af"/><use transform="matrix(0.0087890625,0,0,0.0087890625,30.0234375,0)" xlink:href="#ag"/><use transform="matrix(0.0087890625,0,0,0.0087890625,45.791015625,0)" xlink:href="#Y"/><use transform="matrix(0.0087890625,0,0,0.0087890625,54.6064453125,0)" xlink:href="#Z"/><use transform="matrix(0.0087890625,0,0,0.0087890625,58.9658203125,0)" xlink:href="#S"/></g><g id="z"><use transform="matrix(0.0087890625,0,0,0.0087890625,0,0)" xlink:href="#av"/><use transform="matrix(0.0087890625,0,0,0.0087890625,10.177734375,0)" xlink:href="#T"/><use transform="matrix(0.0087890625,0,0,0.0087890625,20.3203125,0)" xlink:href="#ar"/><use transform="matrix(0.0087890625,0,0,0.0087890625,30.0849609375,0)" xlink:href="#T"/><use transform="matrix(0.0087890625,0,0,0.0087890625,40.5791015625,0)" xlink:href="#ao"/></g><g id="A"><use transform="matrix(0.0087890625,0,0,0.0087890625,0,0)" xlink:href="#V"/><use transform="matrix(0.0087890625,0,0,0.0087890625,9.5009765625,0)" xlink:href="#Q"/><use transform="matrix(0.0087890625,0,0,0.0087890625,15.3896484375,0)" xlink:href="#R"/><use transform="matrix(0.0087890625,0,0,0.0087890625,26.033203125,0)" xlink:href="#S"/><use transform="matrix(0.0087890625,0,0,0.0087890625,37.0546875,0)" xlink:href="#T"/><use transform="matrix(0.0087890625,0,0,0.0087890625,47.548828125,0)" xlink:href="#U"/><use transform="matrix(0.0087890625,0,0,0.0087890625,58.18359375,0)" xlink:href="#Q"/><use transform="matrix(0.0087890625,0,0,0.0087890625,64.072265625,0)" xlink:href="#Y"/><use transform="matrix(0.0087890625,0,0,0.0087890625,72.28125,0)" xlink:href="#as"/><use transform="matrix(0.0087890625,0,0,0.0087890625,82.564453125,0)" xlink:href="#au"/><use transform="matrix(0.0087890625,0,0,0.0087890625,93.357421875,0)" xlink:href="#R"/><use transform="matrix(0.0087890625,0,0,0.0087890625,104.0009765625,0)" xlink:href="#ae"/><use transform="matrix(0.0087890625,0,0,0.0087890625,110.77734375,0)" xlink:href="#V"/><use transform="matrix(0.0087890625,0,0,0.0087890625,120.2783203125,0)" xlink:href="#T"/></g><path d="M180 0v-1490h510c348 0 508 209 508 474 0 266-160 477-507 477H370V0H180zm190-706h312c236 0 327-133 327-310 0-176-91-307-329-307H370v617" id="aD"/><path d="M180 0v-1490h190c0 262 1 526-3 784 217-279 467-523 702-784h249L716-845 1319 0h-225L585-716 370-489V0H180" id="aE"/><g id="B"><use transform="matrix(0.0087890625,0,0,0.0087890625,0,0)" xlink:href="#aD"/><use transform="matrix(0.0087890625,0,0,0.0087890625,11.49609375,0)" xlink:href="#aE"/></g><path d="M538 24C308 24 148-78 108-271l171-41c32 123 123 178 257 178 156 0 256-77 256-169 0-77-54-128-164-154l-186-44c-203-48-300-148-300-305 0-192 176-326 414-326 230 0 351 112 402 269l-163 42c-31-80-94-158-238-158-133 0-233 69-233 162 0 83 57 129 188 160l169 40c203 48 298 149 298 302 0 196-179 339-441 339" id="aF"/><path d="M598-1118v154H368v674c0 100 37 144 132 144 23 0 62-6 92-12L629-6c-37 13-88 20-134 20-193 0-307-107-307-290v-688H20v-154h168v-266h180v266h230" id="aG"/><path d="M537 14c-226 0-379-139-379-422v-710h180v695c0 172 97 275 253 275 160 0 281-109 281-300v-670h181V0H879v-209C806-46 684 14 537 14" id="aH"/><path d="M577 24c-279 0-473-224-473-580 0-354 195-576 474-576 218 0 287 134 324 193h14v-551h180V0H922v-173h-20C865-111 790 24 577 24zm27-161c203 0 314-172 314-421 0-247-108-413-314-413-212 0-317 181-317 413 0 235 108 421 317 421" id="aI"/><path d="M628 24c-324 0-524-230-524-574 0-343 198-582 503-582 237 0 487 146 487 559v75H286c9 234 145 362 343 362 132 0 231-58 273-172l174 48C1024-91 857 24 628 24zM287-650h624c-17-190-120-322-304-322-192 0-309 151-320 322" id="aJ"/><path d="M338-670V0H158v-1118h173l1 207c72-158 192-221 342-221 226 0 378 139 378 422V0H872v-695c0-172-96-275-252-275-161 0-282 109-282 300" id="aK"/><path d="M934 0v166H0V0h934" id="aL"/><path d="M613 24c-304 0-509-231-509-576 0-350 205-580 509-580 216 0 392 114 453 309l-173 49c-33-115-133-197-280-197-223 0-326 196-326 419 0 220 103 415 326 415 150 0 252-85 285-206l172 49C1010-95 832 24 613 24" id="aM"/><path d="M613 24c-304 0-509-231-509-576 0-350 205-580 509-580 305 0 511 230 511 580 0 345-206 576-511 576zm0-161c226 0 329-195 329-415 0-222-103-419-329-419-223 0-326 196-326 419 0 220 103 415 326 415" id="aN"/><path d="M158 0v-1118h174v172h12c41-113 157-188 290-188 26 0 70 2 91 3v181c-11-2-60-10-108-10-161 0-279 109-279 260V0H158" id="aO"/><path d="M158 0v-1118h180V0H158zm91-1301c-68 0-125-53-125-119s57-119 125-119c69 0 126 53 126 119s-57 119-126 119" id="aP"/><g id="C"><use transform="matrix(0.0087890625,0,0,0.0087890625,0,0)" xlink:href="#aF"/><use transform="matrix(0.0087890625,0,0,0.0087890625,9.5009765625,0)" xlink:href="#aG"/><use transform="matrix(0.0087890625,0,0,0.0087890625,15.3896484375,0)" xlink:href="#aH"/><use transform="matrix(0.0087890625,0,0,0.0087890625,26.033203125,0)" xlink:href="#aI"/><use transform="matrix(0.0087890625,0,0,0.0087890625,37.0546875,0)" xlink:href="#aJ"/><use transform="matrix(0.0087890625,0,0,0.0087890625,47.548828125,0)" xlink:href="#aK"/><use transform="matrix(0.0087890625,0,0,0.0087890625,58.18359375,0)" xlink:href="#aG"/><use transform="matrix(0.0087890625,0,0,0.0087890625,64.072265625,0)" xlink:href="#aL"/><use transform="matrix(0.0087890625,0,0,0.0087890625,72.28125,0)" xlink:href="#aM"/><use transform="matrix(0.0087890625,0,0,0.0087890625,82.564453125,0)" xlink:href="#aN"/><use transform="matrix(0.0087890625,0,0,0.0087890625,93.357421875,0)" xlink:href="#aH"/><use transform="matrix(0.0087890625,0,0,0.0087890625,104.0009765625,0)" xlink:href="#aO"/><use transform="matrix(0.0087890625,0,0,0.0087890625,110.77734375,0)" xlink:href="#aF"/><use transform="matrix(0.0087890625,0,0,0.0087890625,120.2783203125,0)" xlink:href="#aJ"/><use transform="matrix(0.0087890625,0,0,0.0087890625,130.7724609375,0)" xlink:href="#aL"/><use transform="matrix(0.0087890625,0,0,0.0087890625,139.587890625,0)" xlink:href="#aP"/><use transform="matrix(0.0087890625,0,0,0.0087890625,143.947265625,0)" xlink:href="#aI"/></g><g id="D"><use transform="matrix(0.0087890625,0,0,0.0087890625,0,0)" xlink:href="#aF"/><use transform="matrix(0.0087890625,0,0,0.0087890625,9.5009765625,0)" xlink:href="#aG"/><use transform="matrix(0.0087890625,0,0,0.0087890625,15.3896484375,0)" xlink:href="#aH"/><use transform="matrix(0.0087890625,0,0,0.0087890625,26.033203125,0)" xlink:href="#aI"/><use transform="matrix(0.0087890625,0,0,0.0087890625,37.0546875,0)" xlink:href="#aJ"/><use transform="matrix(0.0087890625,0,0,0.0087890625,47.548828125,0)" xlink:href="#aK"/><use transform="matrix(0.0087890625,0,0,0.0087890625,58.18359375,0)" xlink:href="#aG"/><use transform="matrix(0.0087890625,0,0,0.0087890625,64.072265625,0)" xlink:href="#aL"/><use transform="matrix(0.0087890625,0,0,0.0087890625,72.8876953125,0)" xlink:href="#aP"/><use transform="matrix(0.0087890625,0,0,0.0087890625,77.2470703125,0)" xlink:href="#aI"/></g><g id="E"><use transform="matrix(0.0087890625,0,0,0.0087890625,0,0)" xlink:href="#aM"/><use transform="matrix(0.0087890625,0,0,0.0087890625,10.283203125,0)" xlink:href="#aN"/><use transform="matrix(0.0087890625,0,0,0.0087890625,21.076171875,0)" xlink:href="#aH"/><use transform="matrix(0.0087890625,0,0,0.0087890625,31.7197265625,0)" xlink:href="#aO"/><use transform="matrix(0.0087890625,0,0,0.0087890625,38.49609375,0)" xlink:href="#aF"/><use transform="matrix(0.0087890625,0,0,0.0087890625,47.9970703125,0)" xlink:href="#aJ"/><use transform="matrix(0.0087890625,0,0,0.0087890625,58.4912109375,0)" xlink:href="#aL"/><use transform="matrix(0.0087890625,0,0,0.0087890625,67.306640625,0)" xlink:href="#aP"/><use transform="matrix(0.0087890625,0,0,0.0087890625,71.666015625,0)" xlink:href="#aI"/></g><g id="F"><use transform="matrix(0.0087890625,0,0,0.0087890625,0,0)" xlink:href="#ao"/><use transform="matrix(0.0087890625,0,0,0.0087890625,4.359375,0)" xlink:href="#T"/><use transform="matrix(0.0087890625,0,0,0.0087890625,14.501953125,0)" xlink:href="#ar"/><use transform="matrix(0.0087890625,0,0,0.0087890625,24.2666015625,0)" xlink:href="#T"/><use transform="matrix(0.0087890625,0,0,0.0087890625,34.7607421875,0)" xlink:href="#ao"/><use transform="matrix(0.0087890625,0,0,0.0087890625,39.1201171875,0)" xlink:href="#Y"/><use transform="matrix(0.0087890625,0,0,0.0087890625,47.3291015625,0)" xlink:href="#Q"/><use transform="matrix(0.0087890625,0,0,0.0087890625,53.0419921875,0)" xlink:href="#T"/><use transform="matrix(0.0087890625,0,0,0.0087890625,63.7119140625,0)" xlink:href="#af"/><use transform="matrix(0.0087890625,0,0,0.0087890625,73.8193359375,0)" xlink:href="#as"/><use transform="matrix(0.0087890625,0,0,0.0087890625,84.1025390625,0)" xlink:href="#at"/><use transform="matrix(0.0087890625,0,0,0.0087890625,94.74609375,0)" xlink:href="#T"/><use transform="matrix(0.0087890625,0,0,0.0087890625,105.240234375,0)" xlink:href="#ae"/></g><g id="G"><use transform="matrix(0.0087890625,0,0,0.0087890625,0,0)" xlink:href="#al"/><use transform="matrix(0.0087890625,0,0,0.0087890625,13.376953125,0)" xlink:href="#af"/><use transform="matrix(0.0087890625,0,0,0.0087890625,23.484375,0)" xlink:href="#ao"/><use transform="matrix(0.0087890625,0,0,0.0087890625,27.84375,0)" xlink:href="#ao"/></g><path fill="#3a414a" d="M677 24c-213 0-288-135-325-197h-20V0H158v-1490h180v551h14c37-59 106-193 324-193 279 0 474 222 474 576 0 356-194 580-473 580zm-27-161c209 0 317-186 317-421 0-232-105-413-317-413-206 0-314 166-314 413 0 249 111 421 314 421" id="aQ"/><g id="H"><use transform="matrix(0.0087890625,0,0,0.0087890625,0,0)" xlink:href="#U"/><use transform="matrix(0.0087890625,0,0,0.0087890625,10.634765625,0)" xlink:href="#R"/><use transform="matrix(0.0087890625,0,0,0.0087890625,21.2783203125,0)" xlink:href="#ag"/><use transform="matrix(0.0087890625,0,0,0.0087890625,37.0458984375,0)" xlink:href="#aQ"/><use transform="matrix(0.0087890625,0,0,0.0087890625,48.0673828125,0)" xlink:href="#T"/><use transform="matrix(0.0087890625,0,0,0.0087890625,58.5615234375,0)" xlink:href="#ae"/></g><path d="M789 20c-398 0-667-293-667-764 0-473 273-766 655-766 315 0 558 198 612 487h-196c-61-191-204-311-415-311-262 0-471 207-471 590 0 380 208 588 482 588 249 0 420-165 425-427H828v-166h572v163c0 370-256 606-611 606" id="aR"/><path d="M471 26C259 26 90-98 90-318c0-256 228-303 435-329 202-27 287-16 287-108 0-139-79-219-234-219-161 0-248 86-283 164l-173-57c86-203 278-265 451-265 150 0 419 46 419 395V0H815v-152h-12C765-73 660 26 471 26zm31-159c199 0 310-134 310-271v-155c-30 35-226 55-295 64-131 17-246 59-246 186 0 116 97 176 231 176" id="aS"/><g id="I"><use transform="matrix(0.008173828125000001,0,0,0.008173828125000001,0,0)" xlink:href="#aR"/><use transform="matrix(0.008173828125000001,0,0,0.008173828125000001,12.489609375000002,0)" xlink:href="#aO"/><use transform="matrix(0.008173828125000001,0,0,0.008173828125000001,18.791630859375005,0)" xlink:href="#aS"/><use transform="matrix(0.008173828125000001,0,0,0.008173828125000001,28.191533203125005,0)" xlink:href="#aI"/><use transform="matrix(0.008173828125000001,0,0,0.008173828125000001,38.44151367187501,0)" xlink:href="#aJ"/><use transform="matrix(0.008173828125000001,0,0,0.008173828125000001,48.20106445312501,0)" xlink:href="#aF"/></g><g id="J"><use transform="matrix(0.008173828125000001,0,0,0.008173828125000001,0,0)" xlink:href="#aD"/><use transform="matrix(0.008173828125000001,0,0,0.008173828125000001,10.691367187500001,0)" xlink:href="#aE"/></g><path d="M611 442c-248 0-391-105-460-228l146-94c47 65 117 165 314 165 178 0 307-82 307-266v-224h-17C863-141 792-18 576-18c-268 0-472-195-472-546 0-346 197-568 476-568 216 0 288 133 326 193h17v-179h175V29c0 289-215 413-487 413zm-5-620c203 0 314-146 314-390 0-237-108-403-314-403-213 0-319 180-319 403 0 230 109 390 319 390" id="aT"/><g id="K"><use transform="matrix(0.008173828125000001,0,0,0.008173828125000001,0,0)" xlink:href="#aT"/><use transform="matrix(0.008173828125000001,0,0,0.008173828125000001,10.266328125000001,0)" xlink:href="#aO"/><use transform="matrix(0.008173828125000001,0,0,0.008173828125000001,16.568349609375,0)" xlink:href="#aS"/><use transform="matrix(0.008173828125000001,0,0,0.008173828125000001,25.968251953125005,0)" xlink:href="#aI"/><use transform="matrix(0.008173828125000001,0,0,0.008173828125000001,36.21823242187501,0)" xlink:href="#aJ"/><use transform="matrix(0.008173828125000001,0,0,0.008173828125000001,45.97778320312501,0)" xlink:href="#aL"/><use transform="matrix(0.008173828125000001,0,0,0.008173828125000001,54.17613281250001,0)" xlink:href="#aP"/><use transform="matrix(0.008173828125000001,0,0,0.008173828125000001,58.230351562500005,0)" xlink:href="#aI"/></g><g id="L"><use transform="matrix(0.008173828125000001,0,0,0.008173828125000001,0,0)" xlink:href="#aT"/><use transform="matrix(0.008173828125000001,0,0,0.008173828125000001,10.266328125000001,0)" xlink:href="#aO"/><use transform="matrix(0.008173828125000001,0,0,0.008173828125000001,16.568349609375,0)" xlink:href="#aS"/><use transform="matrix(0.008173828125000001,0,0,0.008173828125000001,25.968251953125005,0)" xlink:href="#aI"/><use transform="matrix(0.008173828125000001,0,0,0.008173828125000001,36.21823242187501,0)" xlink:href="#aJ"/></g><path d="M180 0v-1490h224l606 953c40 63 108 177 176 312-27-437-7-821-13-1265h190V0h-226C860-448 622-778 356-1262c27 476 11 792 15 1262H180" id="aU"/><g id="M"><use transform="matrix(0.008173828125000001,0,0,0.008173828125000001,0,0)" xlink:href="#ax"/><use transform="matrix(0.008173828125000001,0,0,0.008173828125000001,4.495605468750001,0)" xlink:href="#aU"/><use transform="matrix(0.008173828125000001,0,0,0.008173828125000001,17.107822265625003,0)" xlink:href="#aw"/></g><path d="M180 0v-1490h901v168H370v510h643v168H370V0H180" id="aV"/><g id="N"><use transform="matrix(0.008173828125000001,0,0,0.008173828125000001,0,0)" xlink:href="#aV"/><use transform="matrix(0.008173828125000001,0,0,0.008173828125000001,9.882158203125002,0)" xlink:href="#aE"/></g><g id="O"><use transform="matrix(0.008173828125000001,0,0,0.008173828125000001,0,0)" xlink:href="#aF"/><use transform="matrix(0.008173828125000001,0,0,0.008173828125000001,8.835908203125001,0)" xlink:href="#aG"/><use transform="matrix(0.008173828125000001,0,0,0.008173828125000001,14.312373046875003,0)" xlink:href="#aH"/><use transform="matrix(0.008173828125000001,0,0,0.008173828125000001,24.210878906250002,0)" xlink:href="#aI"/><use transform="matrix(0.008173828125000001,0,0,0.008173828125000001,34.460859375000005,0)" xlink:href="#aJ"/><use transform="matrix(0.008173828125000001,0,0,0.008173828125000001,44.220410156250004,0)" xlink:href="#aK"/><use transform="matrix(0.008173828125000001,0,0,0.008173828125000001,54.11074218750001,0)" xlink:href="#aG"/><use transform="matrix(0.008173828125000001,0,0,0.008173828125000001,59.58720703125001,0)" xlink:href="#aL"/><use transform="matrix(0.008173828125000001,0,0,0.008173828125000001,67.2215625,0)" xlink:href="#aM"/><use transform="matrix(0.008173828125000001,0,0,0.008173828125000001,76.78494140625,0)" xlink:href="#aN"/><use transform="matrix(0.008173828125000001,0,0,0.008173828125000001,86.82240234375,0)" xlink:href="#aH"/><use transform="matrix(0.008173828125000001,0,0,0.008173828125000001,96.720908203125,0)" xlink:href="#aO"/><use transform="matrix(0.008173828125000001,0,0,0.008173828125000001,103.02292968750001,0)" xlink:href="#aF"/><use transform="matrix(0.008173828125000001,0,0,0.008173828125000001,111.85883789062501,0)" xlink:href="#aJ"/><use transform="matrix(0.008173828125000001,0,0,0.008173828125000001,121.61838867187501,0)" xlink:href="#aL"/><use transform="matrix(0.008173828125000001,0,0,0.008173828125000001,129.81673828125,0)" xlink:href="#aP"/><use transform="matrix(0.008173828125000001,0,0,0.008173828125000001,133.87095703125,0)" xlink:href="#aI"/></g></defs></g></svg>